<svg xmlns="http://www.w3.org/2000/svg" width="211.03" height="70.175" viewBox="0 0 211.03 70.175"><defs><style>.a{fill:#fff;}.b{fill:#972a85;}</style></defs><g transform="translate(-170.245 -211.829)"><g transform="translate(251.523 227.682)"><path class="a" d="M378.163,270.293q-4.85,0-7-2.305t-2.149-6.867q0-9.172,9.388-9.172a9.341,9.341,0,0,1,6.987,2.57l-2.714,2.713a5.922,5.922,0,0,0-4.3-1.681,5.345,5.345,0,0,0-4.106,1.4,6.023,6.023,0,0,0-1.3,4.213,6.218,6.218,0,0,0,1.237,4.214q1.237,1.4,4.19,1.4a6.3,6.3,0,0,0,2.569-.444,7.088,7.088,0,0,0,1.945-1.357l2.593,2.545a9.069,9.069,0,0,1-2.917,2.029A11.189,11.189,0,0,1,378.163,270.293Z" transform="translate(-369.015 -251.397)"/><path class="a" d="M414.051,269.23V250.6H417.8v5.955q1.129-1.224,4.418-1.224a6.76,6.76,0,0,1,2.485.4,3.05,3.05,0,0,1,1.5,1.188,5.09,5.09,0,0,1,.7,1.753,12.055,12.055,0,0,1,.192,2.329v8.235h-3.746v-7.491a4.026,4.026,0,0,0-.456-2.161q-.456-.7-2.017-.7a3.085,3.085,0,0,0-2.437.744,3.546,3.546,0,0,0-.612,2.281v7.323Z" transform="translate(-395.636 -250.598)"/><path class="a" d="M455.981,276.284q-2.93,0-4.022-1.092a4.207,4.207,0,0,1-1.093-3.11,3.8,3.8,0,0,1,1.993-3.77q1.993-.983,6.723-.984h.552a1.831,1.831,0,0,0-.528-1.429,3.7,3.7,0,0,0-2.161-.42,7.309,7.309,0,0,0-3.938,1.1l-1.873-2.762a10.619,10.619,0,0,1,2.605-1.129,12.093,12.093,0,0,1,3.613-.528,9.385,9.385,0,0,1,3.71.576,3.18,3.18,0,0,1,1.741,1.681,8.545,8.545,0,0,1,.456,3.145v4.13a1.85,1.85,0,0,0,.18,1.044q.18.2,1,.2v3.073a7.933,7.933,0,0,1-1.585.1,3.849,3.849,0,0,1-1.657-.276,2.2,2.2,0,0,1-.936-1.069Q459.63,276.284,455.981,276.284Zm.744-3.025a4.063,4.063,0,0,0,2.593-.672,2.644,2.644,0,0,0,.817-2.161v-.5h-.312a26.813,26.813,0,0,0-3.553.168,2.71,2.71,0,0,0-1.477.528,1.614,1.614,0,0,0-.348,1.152,1.287,1.287,0,0,0,.5,1.141A3.3,3.3,0,0,0,456.725,273.259Z" transform="translate(-417.397 -257.436)"/><path class="a" d="M489.739,276.068V262.694l2.929-.216.312,1.176q1.344-1.489,4.922-1.489a6.761,6.761,0,0,1,2.485.4,3.051,3.051,0,0,1,1.5,1.188,5.1,5.1,0,0,1,.7,1.753,12.088,12.088,0,0,1,.192,2.329v8.235h-3.746v-7.491a4.026,4.026,0,0,0-.456-2.161q-.456-.7-2.017-.7a3.084,3.084,0,0,0-2.437.744,3.546,3.546,0,0,0-.612,2.281v7.323Z" transform="translate(-440.374 -257.436)"/><path class="a" d="M527.552,276.068V262.694l2.929-.216.312,1.176q1.345-1.489,4.922-1.489a6.76,6.76,0,0,1,2.485.4,3.05,3.05,0,0,1,1.5,1.188,5.1,5.1,0,0,1,.7,1.753,12.054,12.054,0,0,1,.192,2.329v8.235h-3.746v-7.491a4.026,4.026,0,0,0-.456-2.161q-.456-.7-2.017-.7a3.084,3.084,0,0,0-2.437.744,3.546,3.546,0,0,0-.612,2.281v7.323Z" transform="translate(-462.725 -257.436)"/><path class="a" d="M570.864,276.333a10.263,10.263,0,0,1-3.578-.541,4.58,4.58,0,0,1-2.185-1.572,6.322,6.322,0,0,1-1.032-2.209,11.691,11.691,0,0,1-.288-2.761,13.205,13.205,0,0,1,.168-2.209,6.626,6.626,0,0,1,.649-1.921,4.794,4.794,0,0,1,1.248-1.561,5.939,5.939,0,0,1,2.041-1.008,10.25,10.25,0,0,1,2.953-.384,9.094,9.094,0,0,1,2.534.312,4.407,4.407,0,0,1,1.717.888,4.837,4.837,0,0,1,1.068,1.369,5.211,5.211,0,0,1,.552,1.729q.132.936.192,2.017a18.475,18.475,0,0,1-.012,2.209h-9.46a2.92,2.92,0,0,0,.936,1.945,3.86,3.86,0,0,0,2.5.648,6.974,6.974,0,0,0,4.274-1.249l1.9,2.449A8.935,8.935,0,0,1,574.3,275.9,11.891,11.891,0,0,1,570.864,276.333Zm-.144-11.021a3.528,3.528,0,0,0-2.4.672,3.044,3.044,0,0,0-.888,2.017h6.026a3.719,3.719,0,0,0-.612-2.029A2.629,2.629,0,0,0,570.72,265.311Z" transform="translate(-484.14 -257.436)"/><path class="a" d="M604.613,269.278a3.819,3.819,0,0,1-2.821-.912,4.579,4.579,0,0,1-.9-3.242V250.6h3.746v14.07a1.792,1.792,0,0,0,.252,1.129,1.478,1.478,0,0,0,1.092.288h.456v3.1A12.977,12.977,0,0,1,604.613,269.278Z" transform="translate(-506.076 -250.598)"/><path class="a" d="M371.364,323.292V305.5H376.5l4.826,12.149,4.826-12.149h5.115v17.792h-3.842V311.407l-4.778,11.885h-2.977l-4.754-11.813v11.813Z" transform="translate(-370.404 -283.05)"/><path class="a" d="M432.409,329.179a10.264,10.264,0,0,1-3.578-.54,4.581,4.581,0,0,1-2.185-1.573,6.319,6.319,0,0,1-1.032-2.208,11.7,11.7,0,0,1-.288-2.762,13.152,13.152,0,0,1,.168-2.208,6.639,6.639,0,0,1,.649-1.921,4.811,4.811,0,0,1,1.248-1.56,5.928,5.928,0,0,1,2.041-1.008,10.249,10.249,0,0,1,2.953-.384,9.11,9.11,0,0,1,2.534.312,4.406,4.406,0,0,1,1.717.889,4.853,4.853,0,0,1,1.068,1.368,5.212,5.212,0,0,1,.552,1.729q.132.936.192,2.016a18.552,18.552,0,0,1-.012,2.209h-9.46a2.917,2.917,0,0,0,.936,1.944,3.855,3.855,0,0,0,2.5.649,6.976,6.976,0,0,0,4.274-1.248l1.9,2.449a8.951,8.951,0,0,1-2.737,1.417A11.874,11.874,0,0,1,432.409,329.179Zm-.144-11.02a3.529,3.529,0,0,0-2.4.672,3.043,3.043,0,0,0-.888,2.017H435a3.721,3.721,0,0,0-.612-2.029A2.629,2.629,0,0,0,432.265,318.158Z" transform="translate(-402.3 -288.673)"/><path class="a" d="M468.519,329.131a10.054,10.054,0,0,1-3.446-.516,4.515,4.515,0,0,1-2.149-1.524,6.417,6.417,0,0,1-1.057-2.2,11.1,11.1,0,0,1-.312-2.8,11.484,11.484,0,0,1,.3-2.8,6.249,6.249,0,0,1,1.057-2.209,4.617,4.617,0,0,1,2.208-1.548,10.493,10.493,0,0,1,3.566-.528,7.015,7.015,0,0,1,5.522,2.208l-2.641,2.5a3.856,3.856,0,0,0-2.881-1.248,3.128,3.128,0,0,0-2.617.936,4.521,4.521,0,0,0-.72,2.785,4.686,4.686,0,0,0,.708,2.821,3.133,3.133,0,0,0,2.653.948,4.376,4.376,0,0,0,3.073-1.32l2.4,2.3a8.566,8.566,0,0,1-2.5,1.681A8.428,8.428,0,0,1,468.519,329.131Z" transform="translate(-423.715 -288.673)"/><path class="a" d="M496.435,322.077V303.445h3.746V309.4q1.129-1.225,4.418-1.225a6.768,6.768,0,0,1,2.485.4,3.044,3.044,0,0,1,1.5,1.189,5.09,5.09,0,0,1,.7,1.752,12.054,12.054,0,0,1,.192,2.329v8.236h-3.746v-7.491a4.024,4.024,0,0,0-.456-2.161q-.457-.7-2.017-.7a3.084,3.084,0,0,0-2.437.745,3.545,3.545,0,0,0-.612,2.281v7.323Z" transform="translate(-444.332 -281.836)"/><path class="a" d="M537.19,329.131q-2.93,0-4.022-1.093a4.2,4.2,0,0,1-1.093-3.109,3.8,3.8,0,0,1,1.993-3.77q1.993-.984,6.723-.985h.552a1.829,1.829,0,0,0-.528-1.428,3.7,3.7,0,0,0-2.161-.421,7.313,7.313,0,0,0-3.938,1.1l-1.873-2.761a10.587,10.587,0,0,1,2.605-1.129,12.054,12.054,0,0,1,3.614-.528,9.385,9.385,0,0,1,3.71.576,3.18,3.18,0,0,1,1.741,1.681,8.547,8.547,0,0,1,.456,3.146v4.13a1.853,1.853,0,0,0,.18,1.045q.18.2,1,.2v3.073a7.914,7.914,0,0,1-1.585.1,3.848,3.848,0,0,1-1.657-.276,2.2,2.2,0,0,1-.936-1.068Q540.839,329.131,537.19,329.131Zm.744-3.025a4.057,4.057,0,0,0,2.593-.673,2.641,2.641,0,0,0,.817-2.161v-.5h-.312a26.736,26.736,0,0,0-3.553.168,2.7,2.7,0,0,0-1.477.528,1.615,1.615,0,0,0-.348,1.152,1.286,1.286,0,0,0,.5,1.14A3.288,3.288,0,0,0,537.934,326.106Z" transform="translate(-465.399 -288.673)"/><path class="a" d="M570.947,328.915V315.541l2.929-.216.312,1.176q1.345-1.488,4.922-1.488a6.769,6.769,0,0,1,2.485.4,3.045,3.045,0,0,1,1.5,1.189,5.1,5.1,0,0,1,.7,1.752,12.092,12.092,0,0,1,.192,2.329v8.236h-3.746v-7.491a4.024,4.024,0,0,0-.456-2.161q-.456-.7-2.017-.7a3.085,3.085,0,0,0-2.437.745,3.545,3.545,0,0,0-.612,2.281v7.323Z" transform="translate(-488.376 -288.673)"/><path class="a" d="M609.055,307.76v-3.434h3.794v3.434Zm.024,14.838v-13.59h3.746V322.6Z" transform="translate(-510.901 -282.356)"/><path class="a" d="M630.168,329.131a10.055,10.055,0,0,1-3.446-.516,4.515,4.515,0,0,1-2.149-1.524,6.418,6.418,0,0,1-1.057-2.2,11.115,11.115,0,0,1-.312-2.8,11.5,11.5,0,0,1,.3-2.8,6.255,6.255,0,0,1,1.057-2.209,4.617,4.617,0,0,1,2.208-1.548,10.5,10.5,0,0,1,3.566-.528,7.015,7.015,0,0,1,5.522,2.208l-2.641,2.5a3.856,3.856,0,0,0-2.881-1.248,3.127,3.127,0,0,0-2.617.936,4.521,4.521,0,0,0-.72,2.785,4.686,4.686,0,0,0,.708,2.821,3.135,3.135,0,0,0,2.654.948,4.376,4.376,0,0,0,3.073-1.32l2.4,2.3a8.567,8.567,0,0,1-2.5,1.681A8.425,8.425,0,0,1,630.168,329.131Z" transform="translate(-519.265 -288.673)"/><path class="a" d="M661.4,329.131a11.411,11.411,0,0,1-6.483-1.7l1.921-2.761a8.718,8.718,0,0,0,4.8,1.417,5.732,5.732,0,0,0,1.945-.216.886.886,0,0,0,.5-.912.792.792,0,0,0-.48-.792,8.171,8.171,0,0,0-1.921-.408q-.864-.12-1.392-.2t-1.237-.264a6.845,6.845,0,0,1-1.129-.372,5.346,5.346,0,0,1-.888-.528,2.41,2.41,0,0,1-.709-.756,4.506,4.506,0,0,1-.408-1.021,4.976,4.976,0,0,1-.168-1.344,3.754,3.754,0,0,1,1.393-3.194,7.608,7.608,0,0,1,4.538-1.056,11.591,11.591,0,0,1,5.739,1.249l-1.8,2.929a8.04,8.04,0,0,0-3.818-.889,4.849,4.849,0,0,0-1.837.228.871.871,0,0,0-.036,1.525,7.006,7.006,0,0,0,1.8.408q1.08.144,1.669.252t1.416.312a4.136,4.136,0,0,1,1.249.48,6.406,6.406,0,0,1,.876.708,2.309,2.309,0,0,1,.636,1.068,5.349,5.349,0,0,1,.18,1.452,3.843,3.843,0,0,1-1.441,3.373Q664.879,329.132,661.4,329.131Z" transform="translate(-538.008 -288.673)"/></g><g transform="translate(170.245 211.829)"><path class="a" d="M229.647,216.611l4.776-4.781,5.586,10.36,5.581,10.36-10.363-5.584-10.36-5.576Z" transform="translate(-202.532 -211.829)"/><path class="a" d="M257.267,343.93,246.9,338.348l-10.363-5.586,5.586,10.365,5.586,10.36,4.774-4.779Z" transform="translate(-209.433 -283.312)"/><path class="b" d="M302.342,266.458l-5.579,10.363-5.586,10.363L301.54,281.6l10.36-5.586-4.779-4.774Z" transform="translate(-241.727 -244.12)"/><path class="a" d="M179.8,298.866l5.584-10.363,5.584-10.358L180.6,283.73l-10.358,5.581,4.774,4.776Z" transform="translate(-170.245 -251.029)"/><path class="a" d="M278.142,231.44l3.379,11.275L284.9,253.99l3.382-11.275,3.379-11.275H278.142Z" transform="translate(-234.022 -223.421)"/><path class="a" d="M214.414,331.234l-3.379-11.272-3.379-11.275-3.382,11.275L200.9,331.234h13.512Z" transform="translate(-188.366 -269.081)"/><path class="a" d="M289.648,319.742l-11.275,3.379L267.1,326.5l11.272,3.379,11.275,3.377V319.742Z" transform="translate(-227.496 -275.616)"/><path class="a" d="M189.858,256l11.272-3.379,11.277-3.377-11.277-3.377-11.272-3.382V256Z" transform="translate(-181.838 -229.949)"/></g></g></svg>