<svg xmlns="http://www.w3.org/2000/svg" width="214.001" height="71.163" viewBox="0 0 214.001 71.163"><defs><style>.a{fill:#251f62;}.b{fill:#972a85;}</style></defs><g transform="translate(-170.245 -211.829)"><g transform="translate(252.667 227.905)"><path class="a" d="M378.292,270.552q-4.918,0-7.1-2.338t-2.179-6.964q0-9.3,9.52-9.3a9.472,9.472,0,0,1,7.086,2.606l-2.752,2.751a6.005,6.005,0,0,0-4.358-1.7,5.42,5.42,0,0,0-4.164,1.424,6.108,6.108,0,0,0-1.315,4.273,6.305,6.305,0,0,0,1.254,4.273Q375.541,267,378.535,267a6.392,6.392,0,0,0,2.605-.45,7.187,7.187,0,0,0,1.972-1.376l2.63,2.581a9.2,9.2,0,0,1-2.958,2.058A11.346,11.346,0,0,1,378.292,270.552Z" transform="translate(-369.015 -251.389)"/><path class="a" d="M414.051,269.492V250.6h3.8v6.038q1.144-1.241,4.48-1.241a6.854,6.854,0,0,1,2.52.4,3.092,3.092,0,0,1,1.522,1.2,5.16,5.16,0,0,1,.706,1.778,12.224,12.224,0,0,1,.195,2.362v8.351h-3.8v-7.6a4.082,4.082,0,0,0-.462-2.191q-.463-.706-2.046-.706a3.128,3.128,0,0,0-2.471.755,3.6,3.6,0,0,0-.621,2.313v7.426Z" transform="translate(-395.376 -250.598)"/><path class="a" d="M456.053,276.483q-2.971,0-4.078-1.108a4.266,4.266,0,0,1-1.108-3.154q0-2.824,2.021-3.823t6.817-1h.56a1.856,1.856,0,0,0-.536-1.449,3.755,3.755,0,0,0-2.191-.426,7.411,7.411,0,0,0-3.993,1.12l-1.9-2.8a10.771,10.771,0,0,1,2.642-1.144,12.264,12.264,0,0,1,3.664-.535,9.517,9.517,0,0,1,3.762.584,3.224,3.224,0,0,1,1.766,1.7,8.664,8.664,0,0,1,.462,3.189v4.188a1.876,1.876,0,0,0,.182,1.059q.183.208,1.011.207v3.117a8.046,8.046,0,0,1-1.607.1,3.9,3.9,0,0,1-1.68-.28,2.233,2.233,0,0,1-.95-1.084Q459.753,276.483,456.053,276.483Zm.755-3.068a4.119,4.119,0,0,0,2.63-.681,2.681,2.681,0,0,0,.828-2.192v-.511h-.317a27.193,27.193,0,0,0-3.6.17,2.748,2.748,0,0,0-1.5.536,1.637,1.637,0,0,0-.353,1.169,1.305,1.305,0,0,0,.511,1.157A3.343,3.343,0,0,0,456.808,273.415Z" transform="translate(-416.926 -257.369)"/><path class="a" d="M489.739,276.264V262.7l2.971-.219.316,1.193q1.363-1.51,4.991-1.51a6.855,6.855,0,0,1,2.52.4,3.094,3.094,0,0,1,1.522,1.2,5.178,5.178,0,0,1,.706,1.778,12.263,12.263,0,0,1,.195,2.362v8.351h-3.8v-7.6a4.082,4.082,0,0,0-.462-2.191q-.463-.706-2.045-.706a3.128,3.128,0,0,0-2.471.755,3.6,3.6,0,0,0-.621,2.313v7.426Z" transform="translate(-439.679 -257.369)"/><path class="a" d="M527.552,276.264V262.7l2.971-.219.316,1.193q1.363-1.51,4.991-1.51a6.854,6.854,0,0,1,2.52.4,3.092,3.092,0,0,1,1.522,1.2,5.171,5.171,0,0,1,.706,1.778,12.232,12.232,0,0,1,.195,2.362v8.351h-3.8v-7.6a4.083,4.083,0,0,0-.462-2.191q-.463-.706-2.046-.706a3.128,3.128,0,0,0-2.471.755,3.6,3.6,0,0,0-.621,2.313v7.426Z" transform="translate(-461.813 -257.369)"/><path class="a" d="M570.964,276.532a10.406,10.406,0,0,1-3.628-.549,4.643,4.643,0,0,1-2.216-1.594,6.411,6.411,0,0,1-1.047-2.24,11.853,11.853,0,0,1-.292-2.8,13.384,13.384,0,0,1,.17-2.24,6.719,6.719,0,0,1,.658-1.948,4.863,4.863,0,0,1,1.266-1.583,6.025,6.025,0,0,1,2.07-1.023,10.4,10.4,0,0,1,2.995-.39,9.222,9.222,0,0,1,2.569.317,4.469,4.469,0,0,1,1.741.9,4.907,4.907,0,0,1,1.083,1.388,5.283,5.283,0,0,1,.56,1.753q.134.949.195,2.045a18.739,18.739,0,0,1-.012,2.24h-9.593a2.961,2.961,0,0,0,.95,1.972,3.915,3.915,0,0,0,2.532.657,7.072,7.072,0,0,0,4.334-1.266l1.924,2.484a9.061,9.061,0,0,1-2.775,1.436A12.06,12.06,0,0,1,570.964,276.532Zm-.146-11.176a3.577,3.577,0,0,0-2.435.682,3.085,3.085,0,0,0-.9,2.046h6.111a3.771,3.771,0,0,0-.621-2.058A2.666,2.666,0,0,0,570.818,265.356Z" transform="translate(-483.019 -257.369)"/><path class="a" d="M604.665,269.541a3.872,3.872,0,0,1-2.861-.925,4.643,4.643,0,0,1-.913-3.287V250.6h3.8v14.269a1.817,1.817,0,0,0,.256,1.144,1.5,1.5,0,0,0,1.108.292h.463v3.141A13.154,13.154,0,0,1,604.665,269.541Z" transform="translate(-504.741 -250.598)"/><path class="a" d="M371.364,323.542V305.5h5.211l4.894,12.32,4.894-12.32h5.187v18.042h-3.9V311.49l-4.845,12.053h-3.019l-4.821-11.98v11.98Z" transform="translate(-370.39 -282.734)"/><path class="a" d="M432.509,329.378a10.409,10.409,0,0,1-3.628-.547,4.646,4.646,0,0,1-2.216-1.6,6.408,6.408,0,0,1-1.047-2.24,11.864,11.864,0,0,1-.292-2.8,13.336,13.336,0,0,1,.17-2.24,6.734,6.734,0,0,1,.658-1.949,4.879,4.879,0,0,1,1.266-1.582,6.011,6.011,0,0,1,2.07-1.023,10.4,10.4,0,0,1,2.995-.389,9.238,9.238,0,0,1,2.569.316,4.469,4.469,0,0,1,1.741.9,4.922,4.922,0,0,1,1.083,1.387,5.286,5.286,0,0,1,.56,1.754q.134.949.195,2.045a18.8,18.8,0,0,1-.012,2.24h-9.593a2.958,2.958,0,0,0,.95,1.972,3.91,3.91,0,0,0,2.532.658,7.074,7.074,0,0,0,4.334-1.266l1.924,2.483a9.077,9.077,0,0,1-2.776,1.437A12.041,12.041,0,0,1,432.509,329.378Zm-.146-11.176a3.579,3.579,0,0,0-2.434.682,3.086,3.086,0,0,0-.9,2.045h6.111a3.773,3.773,0,0,0-.621-2.058A2.666,2.666,0,0,0,432.362,318.2Z" transform="translate(-401.976 -288.303)"/><path class="a" d="M468.617,329.33a10.2,10.2,0,0,1-3.494-.523,4.579,4.579,0,0,1-2.179-1.546,6.507,6.507,0,0,1-1.071-2.228,11.251,11.251,0,0,1-.317-2.837,11.646,11.646,0,0,1,.3-2.836,6.336,6.336,0,0,1,1.072-2.24,4.682,4.682,0,0,1,2.24-1.57,10.641,10.641,0,0,1,3.616-.536,7.114,7.114,0,0,1,5.6,2.24l-2.678,2.533a3.91,3.91,0,0,0-2.922-1.266,3.172,3.172,0,0,0-2.654.949,4.585,4.585,0,0,0-.73,2.824,4.752,4.752,0,0,0,.718,2.861,3.177,3.177,0,0,0,2.691.962,4.438,4.438,0,0,0,3.117-1.339l2.435,2.337a8.685,8.685,0,0,1-2.532,1.705A8.546,8.546,0,0,1,468.617,329.33Z" transform="translate(-423.182 -288.303)"/><path class="a" d="M496.435,322.339V303.445h3.8v6.039q1.145-1.242,4.48-1.242a6.863,6.863,0,0,1,2.52.4,3.086,3.086,0,0,1,1.522,1.205,5.161,5.161,0,0,1,.706,1.777,12.222,12.222,0,0,1,.195,2.362v8.352h-3.8v-7.6a4.081,4.081,0,0,0-.462-2.191q-.463-.705-2.046-.706a3.128,3.128,0,0,0-2.471.755,3.6,3.6,0,0,0-.621,2.313v7.426Z" transform="translate(-443.599 -281.531)"/><path class="a" d="M537.262,329.33q-2.971,0-4.078-1.108a4.262,4.262,0,0,1-1.108-3.153q0-2.824,2.021-3.823t6.817-1h.56a1.854,1.854,0,0,0-.536-1.448,3.753,3.753,0,0,0-2.191-.427,7.415,7.415,0,0,0-3.993,1.12l-1.9-2.8a10.736,10.736,0,0,1,2.642-1.144,12.224,12.224,0,0,1,3.664-.536,9.517,9.517,0,0,1,3.762.584,3.225,3.225,0,0,1,1.766,1.7,8.669,8.669,0,0,1,.462,3.19v4.188a1.879,1.879,0,0,0,.182,1.059q.183.206,1.011.207v3.117a8.023,8.023,0,0,1-1.607.1,3.9,3.9,0,0,1-1.68-.28,2.228,2.228,0,0,1-.95-1.084Q540.962,329.33,537.262,329.33Zm.755-3.068a4.114,4.114,0,0,0,2.63-.682,2.678,2.678,0,0,0,.828-2.191v-.511h-.317a27.118,27.118,0,0,0-3.6.17,2.741,2.741,0,0,0-1.5.536,1.638,1.638,0,0,0-.353,1.169,1.3,1.3,0,0,0,.511,1.156A3.334,3.334,0,0,0,538.017,326.262Z" transform="translate(-464.461 -288.303)"/><path class="a" d="M570.947,329.111V315.549l2.971-.219.316,1.193q1.363-1.509,4.991-1.509a6.864,6.864,0,0,1,2.52.4,3.089,3.089,0,0,1,1.522,1.205,5.17,5.17,0,0,1,.706,1.777,12.26,12.26,0,0,1,.195,2.362v8.352h-3.8v-7.6a4.081,4.081,0,0,0-.462-2.191q-.463-.705-2.045-.706a3.128,3.128,0,0,0-2.471.755,3.6,3.6,0,0,0-.621,2.313v7.426Z" transform="translate(-487.214 -288.303)"/><path class="a" d="M609.055,307.808v-3.482H612.9v3.482Zm.024,15.047V309.074h3.8v13.781Z" transform="translate(-509.52 -282.047)"/><path class="a" d="M630.266,329.33a10.2,10.2,0,0,1-3.494-.523,4.579,4.579,0,0,1-2.179-1.546,6.506,6.506,0,0,1-1.071-2.228,11.273,11.273,0,0,1-.316-2.837,11.665,11.665,0,0,1,.3-2.836,6.343,6.343,0,0,1,1.071-2.24,4.681,4.681,0,0,1,2.24-1.57,10.645,10.645,0,0,1,3.616-.536,7.114,7.114,0,0,1,5.6,2.24l-2.678,2.533a3.91,3.91,0,0,0-2.922-1.266,3.171,3.171,0,0,0-2.654.949,4.585,4.585,0,0,0-.731,2.824,4.752,4.752,0,0,0,.718,2.861,3.179,3.179,0,0,0,2.691.962,4.437,4.437,0,0,0,3.116-1.339l2.435,2.337a8.685,8.685,0,0,1-2.532,1.705A8.543,8.543,0,0,1,630.266,329.33Z" transform="translate(-517.802 -288.303)"/><path class="a" d="M661.488,329.33a11.572,11.572,0,0,1-6.574-1.729l1.948-2.8a8.841,8.841,0,0,0,4.869,1.437,5.812,5.812,0,0,0,1.973-.219.9.9,0,0,0,.511-.925.8.8,0,0,0-.487-.8,8.286,8.286,0,0,0-1.948-.414q-.876-.121-1.412-.207t-1.254-.268a6.931,6.931,0,0,1-1.145-.377,5.413,5.413,0,0,1-.9-.536,2.446,2.446,0,0,1-.719-.767,4.575,4.575,0,0,1-.414-1.035,5.048,5.048,0,0,1-.17-1.363,3.806,3.806,0,0,1,1.412-3.238,7.715,7.715,0,0,1,4.6-1.071,11.754,11.754,0,0,1,5.819,1.266l-1.826,2.97a8.153,8.153,0,0,0-3.871-.9,4.915,4.915,0,0,0-1.863.231.883.883,0,0,0-.036,1.546,7.111,7.111,0,0,0,1.826.414q1.1.146,1.692.256t1.436.316a4.2,4.2,0,0,1,1.266.487,6.5,6.5,0,0,1,.889.718,2.341,2.341,0,0,1,.645,1.083,5.428,5.428,0,0,1,.183,1.473,3.9,3.9,0,0,1-1.461,3.421Q665.019,329.33,661.488,329.33Z" transform="translate(-536.363 -288.303)"/></g><g transform="translate(170.245 211.829)"><path class="a" d="M229.714,216.678l4.844-4.849,5.665,10.506,5.66,10.506-10.508-5.662-10.506-5.655Z" transform="translate(-202.218 -211.829)"/><path class="a" d="M257.559,344.087l-10.508-5.66-10.508-5.665,5.665,10.511,5.665,10.506,4.841-4.846Z" transform="translate(-209.051 -282.616)"/><path class="b" d="M302.5,266.458l-5.657,10.508-5.665,10.508,10.508-5.665,10.506-5.665-4.846-4.841Z" transform="translate(-241.031 -243.806)"/><path class="a" d="M179.932,299.158l5.662-10.508,5.662-10.5-10.508,5.662-10.5,5.66,4.841,4.844Z" transform="translate(-170.245 -250.647)"/><path class="a" d="M278.142,231.44l3.427,11.434L285,254.307l3.429-11.434,3.427-11.434h-13.71Z" transform="translate(-233.401 -223.308)"/><path class="a" d="M214.6,331.552l-3.427-11.431-3.427-11.434-3.429,11.434L200.9,331.552h13.7Z" transform="translate(-188.19 -268.524)"/><path class="a" d="M289.966,319.742l-11.434,3.427L267.1,326.593l11.431,3.427,11.434,3.424v-13.7Z" transform="translate(-226.939 -274.995)"/><path class="a" d="M189.858,256.189l11.431-3.427,11.436-3.424-11.436-3.424-11.431-3.429v13.7Z" transform="translate(-181.725 -229.773)"/></g></g></svg>